<?xml version="1.0" encoding="UTF-8" ?>
<!DOCTYPE svg PUBLIC "-//W3C//DTD SVG 1.1//EN" "http://www.w3.org/Graphics/SVG/1.1/DTD/svg11.dtd">
<svg width="91pt" height="80pt" viewBox="0 0 91 80" version="1.1" xmlns="http://www.w3.org/2000/svg">
<g id="#644cccff">
<path fill="#644ccc" opacity="1.00" d=" M 24.36 1.51 C 36.55 0.97 48.79 1.42 60.99 0.84 C 63.99 1.03 68.17 -0.25 69.95 3.00 C 76.58 14.42 83.25 25.83 89.84 37.28 C 90.98 38.90 90.49 40.97 89.45 42.50 C 82.73 53.81 75.96 65.09 69.29 76.43 C 68.58 77.60 67.35 78.64 65.92 78.64 C 53.29 78.84 40.65 78.65 28.02 79.16 C 25.58 79.23 22.38 79.42 21.05 76.88 C 14.42 65.54 7.83 54.16 1.26 42.77 C 0.27 41.45 0.18 39.60 1.13 38.22 C 7.93 26.97 14.59 15.64 21.33 4.36 C 22.08 3.22 22.86 1.73 24.36 1.51 M 28.06 10.21 C 26.45 13.04 24.77 15.82 23.04 18.57 C 26.39 18.58 29.75 18.55 33.10 18.47 C 34.74 15.58 36.54 12.78 38.10 9.85 C 34.75 9.83 31.41 10.13 28.06 10.21 M 39.24 25.21 C 38.37 26.68 36.65 27.41 34.98 27.28 C 29.27 27.33 23.56 27.39 17.85 27.42 C 16.17 30.23 14.49 33.03 12.83 35.85 C 22.89 35.61 33.14 36.11 43.10 35.30 C 48.36 26.85 53.28 18.18 58.46 9.68 C 55.17 9.76 51.89 9.80 48.60 9.74 C 45.33 14.81 42.49 20.13 39.24 25.21 M 66.10 13.88 C 61.06 22.67 55.80 31.33 50.59 40.01 C 55.80 48.30 60.07 57.25 65.68 65.24 C 67.27 62.42 68.93 59.65 70.65 56.91 C 67.73 51.95 64.87 46.96 61.97 42.00 C 61.20 40.55 60.11 38.79 61.18 37.19 C 64.02 31.94 68.13 27.35 70.75 22.03 C 69.36 19.23 67.59 16.63 66.10 13.88 M 70.39 39.00 C 72.27 42.01 73.96 45.15 75.86 48.15 C 77.48 45.30 79.11 42.45 80.91 39.71 C 79.45 36.66 77.59 33.83 75.98 30.86 C 73.92 33.43 72.29 36.31 70.39 39.00 M 12.46 44.68 C 14.11 47.37 15.71 50.10 17.24 52.87 C 23.21 52.83 29.16 52.12 35.13 52.14 C 36.66 52.04 37.86 53.20 38.57 54.44 C 41.63 59.43 44.36 64.63 47.47 69.60 C 50.70 70.67 54.36 69.43 57.76 69.91 C 52.94 61.41 47.85 53.06 43.13 44.50 C 32.91 44.39 22.68 44.69 12.46 44.68 M 22.21 61.53 C 24.00 64.40 25.69 67.33 27.36 70.27 C 30.77 70.25 34.18 70.22 37.59 70.21 C 35.71 67.12 33.97 63.94 32.09 60.85 C 28.81 61.25 25.50 61.35 22.21 61.53 Z" />
</g>
</svg>
